<svg width="227" height="335" viewBox="0 0 227 335" fill="none" xmlns="http://www.w3.org/2000/svg">
<path d="M181.174 35.8266L187.99 10.3583L190.214 2.06156C190.398 1.37712 190.898 0.782402 191.603 0.408222C192.309 0.0340426 193.162 -0.0889509 193.975 0.0663021L197.333 0.705716L224.261 5.82094C224.663 5.8972 225.043 6.0394 225.38 6.23944C225.717 6.43947 226.003 6.6934 226.223 6.98672C226.443 7.28005 226.593 7.60701 226.663 7.94892C226.732 8.29084 226.722 8.64101 226.631 8.97942C228.076 20.3115 225.222 30.7653 219.027 40.5489C218.57 41.2807 218.085 42.0126 217.581 42.7445C217.448 43.2505 217.139 43.7117 216.694 44.0695C216.319 44.371 215.861 44.59 215.362 44.7069C214.862 44.8238 214.336 44.8351 213.83 44.7397L210.298 44.0695L208.12 43.6535L183.544 38.9851C182.732 38.8307 182.026 38.4112 181.582 37.8189C181.138 37.2266 180.991 36.51 181.174 35.8266V35.8266Z" fill="#E6E6E6"/>
<path d="M183.992 34.409L190.488 10.181L192.044 4.36481C192.215 3.72445 192.682 3.16759 193.341 2.81657C193.999 2.46556 194.797 2.34912 195.558 2.49283L197.625 2.88572L221.589 7.43855C222.35 7.58289 223.011 7.97554 223.428 8.53023C223.845 9.08492 223.983 9.75627 223.813 10.3968C223.602 19.2174 222.504 27.2215 217.993 32.1056C217.48 34.0053 216.378 35.7567 214.8 37.1816C213.221 38.6064 211.223 39.6539 209.008 40.2175C208.953 40.2329 208.907 40.2484 208.852 40.2637C208.816 40.2714 208.77 40.2869 208.734 40.2946C206.649 40.7885 204.45 40.8361 202.338 40.4332L186.215 37.3671C185.455 37.2228 184.793 36.8302 184.377 36.2755C183.96 35.7208 183.821 35.0495 183.992 34.409V34.409Z" fill="white"/>
<path d="M205.21 13.0014C205.949 13.0324 206.699 13.3056 207.348 13.7802C207.997 14.2549 208.511 14.9055 208.812 15.6348C209.423 17.2584 208.81 18.6926 207.602 19.485C206.251 20.3703 204.523 20.6488 203.279 21.7024C202.191 22.6244 201.538 24.111 202.012 25.7265C202.351 26.885 204.1 26.7529 203.759 25.5888C203.197 23.6733 205.059 22.7338 206.402 22.1715C208.081 21.4694 209.801 20.7641 210.527 18.9807C210.818 18.2202 210.9 17.3641 210.765 16.491C210.63 15.6178 210.283 14.7553 209.756 13.9825C209.229 13.2097 208.538 12.5511 207.747 12.0671C206.956 11.5831 206.09 11.2891 205.227 11.2119C204.085 11.1253 204.053 12.9137 205.21 13.0014V13.0014Z" fill="#612897"/>
<path d="M201.24 33.3396C202.322 33.3396 203.199 32.6013 203.199 31.6907C203.199 30.78 202.322 30.0417 201.24 30.0417C200.159 30.0417 199.282 30.78 199.282 31.6907C199.282 32.6013 200.159 33.3396 201.24 33.3396Z" fill="#612897"/>
<path d="M75.9755 318.73L106.981 318.574L117.083 318.524C118.819 318.517 120.242 319.072 120.261 319.765L120.301 321.14L120.642 332.164C120.668 332.852 119.278 333.424 117.543 333.432C104.895 335.174 92.0133 335.349 79.3054 333.954C78.3536 333.857 77.3963 333.75 76.4332 333.634C75.8457 333.641 75.2603 333.574 74.6965 333.435C73.8391 333.213 73.2724 332.831 73.2574 332.396L73.212 330.951L73.1871 330.059L72.8764 319.998C72.8574 319.305 74.2486 318.737 75.9755 318.73Z" fill="#E6E6E6"/>
<path d="M78.267 319.669L107.766 319.525L114.846 319.489C116.469 319.481 117.804 320 117.825 320.648L117.851 321.494L118.153 331.304C118.173 331.952 116.874 332.485 115.251 332.493C105.012 333.383 95.5095 333.837 88.8198 332.623C83.95 332.644 79.655 331.595 77.3626 330.025C77.332 330.006 77.3036 329.99 77.2731 329.97C77.2557 329.957 77.2272 329.941 77.2098 329.927C76.7431 329.638 76.3551 329.268 76.0715 328.842C75.7879 328.416 75.6153 327.944 75.5652 327.458L75.3655 320.858C75.3451 320.21 76.6445 319.677 78.267 319.669Z" fill="white"/>
<path d="M105.635 326.863C106.539 326.322 106.633 325.587 105.547 325.069C104.399 324.522 102.602 324.439 101.017 324.694C99.2476 324.98 97.805 325.523 95.9458 325.736C94.3187 325.924 92.4437 325.844 91.21 325.346C90.3254 324.989 91.641 324.409 92.5299 324.768C93.9925 325.358 96.1618 324.906 97.6163 324.556C99.4325 324.119 101.281 323.667 103.491 323.783C107.512 323.995 109.61 325.886 107.369 327.226C106.677 327.64 104.933 327.282 105.635 326.863V326.863Z" fill="#E6E6E6"/>
<path d="M87.2573 325.854C86.1757 325.854 85.2988 325.504 85.2988 325.072C85.2988 324.64 86.1757 324.29 87.2573 324.29C88.339 324.29 89.2158 324.64 89.2158 325.072C89.2158 325.504 88.339 325.854 87.2573 325.854Z" fill="#E6E6E6"/>
<path d="M225.244 127.611C227.938 118.085 227.488 108.702 222.875 99.509C222.826 98.9402 222.512 98.411 222 98.0373C221.489 97.6637 220.822 97.4761 220.146 97.5159L194.938 99.0218C194.263 99.0628 193.634 99.3277 193.19 99.7585C192.746 100.189 192.524 100.751 192.571 101.319L194.939 129.422C194.988 129.99 195.303 130.52 195.814 130.893C196.326 131.267 196.993 131.454 197.668 131.415L222.876 129.909C223.552 129.868 224.18 129.603 224.624 129.172C225.068 128.741 225.291 128.18 225.244 127.611Z" fill="#F2F2F2"/>
<path d="M222.595 119.239C224.751 114.544 223.372 108.088 221.072 101.172C221.027 100.639 220.732 100.144 220.253 99.7937C219.774 99.4438 219.149 99.2681 218.516 99.3053L196.852 100.6C196.219 100.638 195.631 100.886 195.215 101.289C194.799 101.693 194.591 102.219 194.635 102.751L196.743 127.758C196.788 128.291 197.083 128.787 197.562 129.137C198.041 129.487 198.666 129.662 199.298 129.625L212.719 128.823C215.537 128.652 218.159 127.547 220.011 125.75C221.862 123.953 222.792 121.612 222.595 119.239V119.239Z" fill="white"/>
<path d="M214.571 120.464C213.909 120.368 213.247 120.272 212.585 120.177C212.89 119.571 213.066 118.925 213.105 118.268C213.418 114.75 213.45 111.2 213.617 107.675C213.613 107.546 213.564 107.421 213.477 107.315C213.39 107.209 213.269 107.126 213.127 107.077C212.986 107.028 212.83 107.014 212.68 107.037C212.529 107.06 212.39 107.12 212.278 107.208C210.617 108.367 208.955 109.526 207.293 110.685C206.515 111.228 207.63 112.157 208.402 111.619C209.594 110.787 210.787 109.955 211.98 109.123C211.871 111.433 211.761 113.742 211.652 116.051C211.599 117.16 211.759 118.505 211.22 119.547C211.147 119.688 211.05 119.819 210.934 119.938C210.202 119.832 209.469 119.726 208.736 119.62C208.21 119.544 207.54 119.914 207.772 120.432C208.276 121.558 209.763 121.914 211.037 121.48C211.15 121.438 211.258 121.389 211.363 121.333L214.154 121.737C215.141 121.88 215.565 120.608 214.571 120.464Z" fill="#F2F2F2"/>
<path d="M133.766 130.252C136.46 120.725 136.011 111.342 131.397 102.15C131.349 101.581 131.034 101.052 130.522 100.678C130.011 100.304 129.344 100.117 128.668 100.156L103.46 101.662C102.785 101.703 102.156 101.968 101.712 102.399C101.269 102.83 101.046 103.391 101.093 103.96L103.461 132.062C103.51 132.631 103.825 133.16 104.336 133.534C104.848 133.908 105.515 134.095 106.19 134.055L131.398 132.549C132.074 132.508 132.703 132.244 133.146 131.813C133.59 131.382 133.813 130.821 133.766 130.252V130.252Z" fill="#F2F2F2"/>
<path d="M131.117 121.879C133.273 117.185 131.894 110.728 129.594 103.813C129.548 103.28 129.254 102.784 128.775 102.434C128.296 102.084 127.671 101.909 127.038 101.946L105.374 103.24C104.741 103.279 104.153 103.527 103.737 103.93C103.321 104.333 103.113 104.859 103.157 105.392L105.264 130.399C105.31 130.932 105.605 131.427 106.084 131.777C106.563 132.127 107.188 132.303 107.82 132.266L121.241 131.464C124.059 131.293 126.681 130.188 128.533 128.391C130.384 126.594 131.313 124.252 131.117 121.879V121.879Z" fill="white"/>
<path d="M121.376 117.111C121.664 116.998 121.936 116.859 122.189 116.696C122.86 116.23 123.357 115.609 123.618 114.91C123.879 114.211 123.894 113.463 123.66 112.757C122.644 109.612 118.176 109.593 115.092 109.972C114.098 110.094 114.521 111.366 115.509 111.245C117.588 110.99 120.851 110.784 121.968 112.695C122.222 113.144 122.313 113.647 122.228 114.139C122.143 114.631 121.886 115.092 121.49 115.461C121.016 115.861 120.393 116.111 119.725 116.167C119.078 115.93 118.376 115.82 117.672 115.845C116.945 115.874 116.54 116.763 117.276 117.075C117.927 117.348 118.645 117.49 119.372 117.491C119.975 117.736 120.479 118.126 120.82 118.611C121.161 119.096 121.324 119.656 121.289 120.219C121.219 120.604 121.06 120.974 120.82 121.308C120.58 121.641 120.264 121.932 119.891 122.162C119.517 122.393 119.093 122.558 118.643 122.65C118.193 122.742 117.726 122.758 117.268 122.698C116.283 122.531 115.861 123.803 116.851 123.971C117.527 124.078 118.222 124.069 118.893 123.944C119.565 123.82 120.2 123.582 120.759 123.245C121.319 122.908 121.791 122.479 122.149 121.985C122.506 121.49 122.741 120.94 122.839 120.366C122.901 119.766 122.802 119.162 122.549 118.598C122.295 118.035 121.894 117.526 121.376 117.111V117.111Z" fill="#F2F2F2"/>
<path d="M84.7622 310.468L93.6314 310.468L97.8503 281.666L84.7606 281.667L84.7622 310.468Z" fill="#FFB6B6"/>
<path d="M84.4501 318.258L111.724 318.257V317.967C111.723 315.597 110.605 313.323 108.614 311.647C106.623 309.971 103.923 309.03 101.108 309.03H101.107L96.1255 305.848L86.8305 309.03L84.4497 309.03L84.4501 318.258Z" fill="#2F2E41"/>
<path d="M43.9892 326.312L52.8584 326.312L57.0774 297.51L43.9877 297.511L43.9892 326.312Z" fill="#FFB6B6"/>
<path d="M43.6772 334.102L70.9507 334.101V333.811C70.9505 331.44 69.832 329.167 67.8412 327.491C65.8504 325.815 63.1504 324.873 60.3351 324.873H60.3344L55.3526 321.691L46.0575 324.874L43.6767 324.874L43.6772 334.102Z" fill="#2F2E41"/>
<path d="M153.109 95.979C152.5 96.5523 151.75 97.0073 150.911 97.3126C150.073 97.6178 149.165 97.7661 148.252 97.7471C147.339 97.7281 146.441 97.5423 145.621 97.2025C144.802 96.8627 144.079 96.3771 143.505 95.7792L113.264 103.027L108.826 96.477L144.818 88.0903C146.086 87.3506 147.631 87.0279 149.162 87.1835C150.693 87.3391 152.104 87.9621 153.125 88.9345C154.147 89.9068 154.71 91.161 154.707 92.4594C154.704 93.7577 154.135 95.0101 153.109 95.979V95.979Z" fill="#FFB6B6"/>
<path d="M74.4693 156.597L106.289 217.851L109.948 227.533L98.8853 295.492L81.0287 294.759L81.0688 286.043C81.0688 286.043 85.3183 284.103 81.0826 283.049C76.8468 281.996 77.0253 279.32 81.1179 275.377C85.2105 271.433 81.3098 233.695 81.3098 233.695C81.3098 233.695 64.4583 220.109 66.294 216.559C68.1297 213.01 64.7219 213.01 64.7219 213.01C64.7219 213.01 61.0887 212.463 60.9501 210.976C60.8115 209.489 58.1188 206.499 58.1188 206.499L59.0621 311.166H43.655C43.655 311.166 36.611 301.311 37.9952 299.19C39.3795 297.069 41.3155 296.862 37.9952 294.325C34.6749 291.788 29.8018 293.864 31.977 289.085C34.1522 284.306 33.5933 232.737 33.5933 232.737C33.5933 232.737 25.0225 202.811 30.3178 200.779C35.6131 198.747 32.9805 199.034 29.8536 196.25C26.7267 193.466 32.0298 193.72 29.3782 191.613C26.7266 189.505 26.6197 164.7 26.6197 164.7L74.4693 156.597Z" fill="#2F2E41"/>
<path d="M24.2202 173.841C46.5251 173.797 65.6623 178.017 87.9673 177.973C86.5141 169.506 81.4355 156.234 79.9831 147.764C77.9403 135.852 79.5243 128.742 77.4865 116.83C77.2827 115.663 77.084 114.502 76.8854 113.335C76.0804 108.626 78.0093 103.917 74.5488 98.944C73.0747 96.8227 70.6231 94.6574 66.5614 92.4216C58.1245 93.1434 58.2709 89.9395 49.834 90.6612L47.0427 95.3439C46.6872 97.1219 45.4065 98.2794 43.671 99.1552C40.1008 100.973 34.6017 101.607 31.298 104.067C27.1475 107.156 27.4245 112.099 28.6582 116.922C29.0973 118.639 29.6566 120.337 30.1846 121.935C34.4339 134.806 29.0024 144.626 24.5736 156.566C24.1536 157.699 28.1311 162.077 27.71 163.168C26.9952 165.016 24.4366 167.316 24.8439 168.565C25.3482 170.112 25.851 171.567 24.2202 173.841Z" fill="#4FBDBA"/>
<path d="M28.6583 116.922L77.4867 116.83L79.0549 116.825L136.961 98.9127L129.551 99.1243L126.111 92.448L124.454 89.2396L90.3249 98.8427L74.5489 98.9439L44.8055 99.1287C44.4239 99.1331 44.0475 99.142 43.6712 99.1552C40.1009 100.973 34.6018 101.607 31.2981 104.067C27.1476 107.156 27.4247 112.099 28.6583 116.922Z" fill="#4FBDBA"/>
<path d="M62.0179 89.3839C53.2544 89.3839 46.1502 83.4027 46.1502 76.0245C46.1502 68.6463 53.2544 62.665 62.0179 62.665C70.7813 62.665 77.8855 68.6463 77.8855 76.0245C77.8855 83.4027 70.7813 89.3839 62.0179 89.3839Z" fill="#FFB6B6"/>
<path d="M64.2728 87.5073L62.9802 90.9869C60.1143 89.7957 51.9825 88.1428 49.5961 86.3528C47.2097 84.5627 45.3639 82.0924 45.2509 79.4032C45.1926 78.0143 45.592 76.6132 45.3179 75.2427C45.0082 73.6941 43.8729 72.3517 43.3533 70.8435C42.8671 69.2637 43.0501 67.5907 43.8708 66.1123C44.6914 64.6339 46.0984 63.4426 47.8497 62.7432C50.4799 61.77 53.4876 62.0432 56.347 61.808C59.2065 61.5727 62.3962 60.4837 63.201 58.1616C63.502 57.2934 63.4675 56.2698 64.3886 55.7013C64.8516 55.4408 65.4126 55.3338 65.9637 55.4009C66.5148 55.468 67.0169 55.7044 67.3732 56.0646C67.4156 56.1052 67.4564 56.1461 67.4955 56.1875C69.916 58.744 74.4779 58.9337 76.8652 56.3552C77.0212 56.1867 77.1712 56.0143 77.3151 55.838C77.8167 56.2335 78.2203 56.7088 78.5025 57.2364C78.7846 57.7641 78.9397 58.3335 78.9589 58.9119C78.978 59.4903 78.8608 60.0662 78.614 60.6062C78.3672 61.1462 77.9957 61.6397 77.521 62.0581C78.4226 62.0584 79.2981 61.8029 80.0061 61.3328C80.7141 60.8627 81.2133 60.2055 81.4231 59.4671C82.5181 60.7405 83.642 62.0685 83.9941 63.6124C84.3462 65.1564 83.6927 66.9824 82.0109 67.6656C81.1526 67.9512 80.2314 68.0782 79.3097 68.038C83.648 72.3584 81.0451 72.2341 72.2594 68.1508C67.9009 68.2205 69.6223 71.6303 69.5658 75.3001C67.5146 75.1342 65.402 74.972 63.4624 75.6992C62.5589 76.0195 61.7975 76.5703 61.2855 77.2742C60.0036 79.128 61.2754 81.0548 62.4025 82.7409C63.366 84.1823 64.2794 85.918 63.4798 87.4288" fill="#2F2E41"/>
<path d="M93.1524 199.502C92.3527 199.13 91.6586 198.616 91.1181 197.996C90.5776 197.376 90.2035 196.664 90.0218 195.91C89.84 195.156 89.8549 194.378 90.0654 193.63C90.276 192.881 90.6771 192.18 91.2412 191.575L76.1037 168.373L82.6969 163.27L100.437 190.938C101.576 191.813 102.294 193.01 102.456 194.301C102.617 195.592 102.21 196.888 101.312 197.944C100.415 198.999 99.088 199.741 97.584 200.028C96.0801 200.315 94.5033 200.128 93.1524 199.502L93.1524 199.502Z" fill="#FFB6B6"/>
<path d="M56.2323 91.0001L59.7607 144.217L76.7599 177.661L87.8241 190.014L86.5664 184.416L94.193 181.204L94.9092 180.904L84.7577 159.256L81.6945 152.725L80.2675 133.065L78.9188 114.475C78.6862 111.276 77.6676 108.152 75.9275 105.302C74.1873 102.451 71.7635 99.9356 68.8092 97.9141L60.3409 92.1224L56.2323 91.0001Z" fill="#4FBDBA"/>
<path d="M175.061 91.0826C177.755 81.5562 177.306 72.1733 172.693 62.9804C172.644 62.4117 172.33 61.8824 171.818 61.5088C171.306 61.1351 170.64 60.9476 169.964 60.9873L144.756 62.4932C144.08 62.5342 143.452 62.7992 143.008 63.2299C142.564 63.6606 142.342 64.222 142.389 64.7908L144.757 92.893C144.806 93.4618 145.12 93.991 145.632 94.3647C146.144 94.7383 146.81 94.9259 147.486 94.8862L172.694 93.3802C173.37 93.3392 173.998 93.0743 174.442 92.6436C174.886 92.2128 175.109 91.6515 175.061 91.0826V91.0826Z" fill="#F2F2F2"/>
<path d="M172.413 82.71C174.569 78.0156 173.19 71.5592 170.89 64.6434C170.844 64.1107 170.55 63.6151 170.071 63.2651C169.591 62.9152 168.967 62.7395 168.334 62.7768L146.67 64.071C146.037 64.1094 145.449 64.3575 145.033 64.7609C144.617 65.1643 144.409 65.69 144.453 66.2227L146.56 91.2299C146.606 91.7625 146.901 92.2582 147.38 92.6082C147.859 92.9581 148.483 93.1337 149.116 93.0965L162.537 92.2948C165.355 92.1237 167.977 91.0186 169.829 89.2217C171.68 87.4248 172.609 85.083 172.413 82.71V82.71Z" fill="white"/>
<path d="M161.142 70.1257C158.921 69.4769 156.452 70.9555 156.2 72.8726C155.914 75.0456 158.69 76.761 161.093 76.1704C162.06 75.9328 161.649 74.6583 160.677 74.8972C158.915 75.3301 157.036 73.7286 158.049 72.2967C158.279 71.9511 158.628 71.6727 159.051 71.4986C159.474 71.3245 159.949 71.2629 160.415 71.322C160.81 71.4141 161.174 71.5829 161.477 71.8149C161.781 72.0468 162.016 72.3354 162.163 72.6575C163.027 74.2975 162 75.9625 160.638 77.1545C159.862 77.8343 158.951 78.3626 158.114 78.9823C157.707 79.2411 157.369 79.5689 157.122 79.9444C156.875 80.3199 156.724 80.7349 156.678 81.1626C156.7 81.6435 156.878 82.1103 157.193 82.5123C157.507 82.9143 157.946 83.2362 158.462 83.4434C159.799 84.0223 161.32 83.8382 162.742 83.6455C163.736 83.5109 163.314 82.2384 162.325 82.3724C161.081 82.5409 159.219 82.7962 158.431 81.7042C157.756 80.769 159.146 79.9478 159.904 79.4503C161.809 78.2 163.734 76.5854 164.02 74.4595C164.255 72.718 163.203 70.7281 161.142 70.1257Z" fill="#F2F2F2"/>
<path d="M28.3628 327.372C28.1199 327.381 27.8793 327.327 27.6738 327.218C27.4683 327.108 27.3078 326.948 27.2139 326.759C27.1201 326.57 27.0975 326.362 27.1492 326.162C27.201 325.962 27.3245 325.78 27.5031 325.641L27.5844 325.369C27.5737 325.347 27.5629 325.325 27.5521 325.303C27.3073 324.817 26.8971 324.401 26.3731 324.11C25.8491 323.819 25.2345 323.665 24.6067 323.667C23.9789 323.669 23.3657 323.827 22.8443 324.121C22.3228 324.416 21.9163 324.833 21.6759 325.322C20.7148 327.271 19.4912 329.223 19.1899 331.283C19.0572 332.194 19.1131 333.117 19.3553 334.012C17.098 329.866 15.9258 325.36 15.9183 320.8C15.9178 319.655 15.9933 318.512 16.1445 317.375C16.2694 316.442 16.4427 315.516 16.6644 314.597C17.8743 309.61 20.472 304.936 24.2441 300.959C26.0698 300.12 27.5463 298.83 28.4745 297.263C28.8108 296.7 29.0485 296.099 29.1802 295.478C28.9742 295.501 28.4036 292.86 28.559 292.698C28.2719 292.332 27.7582 292.149 27.4448 291.791C25.8858 290.012 23.738 290.323 22.6168 292.741C20.2215 293.759 20.1983 295.447 21.668 297.07C22.603 298.103 22.7315 299.501 23.552 300.606C23.4676 300.697 23.3798 300.785 23.2954 300.876C21.7524 302.547 20.4076 304.34 19.2803 306.232C19.5544 304.113 19.2272 301.97 18.3255 299.978C17.4117 298.122 15.6989 296.559 14.1905 294.954C13.7916 294.523 13.2498 294.201 12.6337 294.03C12.0176 293.858 11.3548 293.844 10.7291 293.989C10.1034 294.134 9.54288 294.432 9.11841 294.846C8.69393 295.259 8.42454 295.769 8.3443 296.311C8.34121 296.335 8.33818 296.359 8.33524 296.382C8.55928 296.489 8.7786 296.602 8.99318 296.721C9.26274 296.873 9.4716 297.089 9.59242 297.343C9.71323 297.596 9.74036 297.874 9.67023 298.141C9.60011 298.407 9.43602 298.649 9.19945 298.836C8.96287 299.023 8.66484 299.145 8.34442 299.186L8.31163 299.191C8.39144 299.87 8.5325 300.544 8.73363 301.206C6.79859 307.506 10.9762 309.801 16.9413 309.904C17.073 309.961 17.2013 310.018 17.333 310.072C16.2003 312.774 15.4898 315.589 15.2194 318.446C15.0663 320.132 15.0754 321.825 15.2464 323.509L15.2363 323.449C14.8041 321.576 13.6175 319.887 11.8769 318.665C9.29169 316.877 5.63926 316.219 2.85026 314.782C2.55386 314.621 2.20921 314.536 1.85697 314.535C1.50473 314.534 1.1596 314.618 0.862267 314.777C0.564937 314.936 0.327837 315.164 0.178895 315.432C0.0299532 315.701 -0.024607 316 0.0216673 316.294L0.0330573 316.357C0.448816 316.499 0.853628 316.664 1.24513 316.849C1.46917 316.955 1.68849 317.068 1.90307 317.188C2.17264 317.339 2.38149 317.556 2.50231 317.809C2.62312 318.062 2.65025 318.341 2.58013 318.607C2.51 318.873 2.34588 319.116 2.1093 319.303C1.87273 319.489 1.57473 319.611 1.25432 319.653L1.22148 319.657C1.19786 319.66 1.17755 319.663 1.15397 319.666C1.86435 321.094 2.86139 322.408 4.10142 323.551C5.31135 329.051 10.508 329.573 16.0669 327.972H16.0702C16.6801 330.203 17.5638 332.375 18.7071 334.453H28.1268C28.1606 334.365 28.1909 334.274 28.2213 334.185C27.3494 334.232 26.4741 334.188 25.6149 334.055C26.3138 333.333 27.0126 332.605 27.7115 331.883C27.7271 331.87 27.7418 331.855 27.7554 331.84C28.1099 331.471 28.4678 331.104 28.8223 330.735L28.8225 330.734C28.8414 329.601 28.687 328.471 28.3632 327.372L28.3628 327.372Z" fill="#F2F2F2"/>
<path d="M133.72 334.476C133.72 334.545 133.704 334.613 133.673 334.677C133.642 334.741 133.596 334.798 133.538 334.847C133.48 334.896 133.412 334.934 133.336 334.961C133.261 334.987 133.18 335 133.098 335H0.695287C0.530309 335 0.37207 334.945 0.255413 334.847C0.138756 334.748 0.0732352 334.615 0.0732352 334.476C0.0732352 334.337 0.138756 334.204 0.255413 334.106C0.37207 334.008 0.530309 333.953 0.695287 333.953H133.098C133.18 333.952 133.261 333.966 133.336 333.992C133.412 334.018 133.48 334.057 133.538 334.106C133.596 334.154 133.642 334.212 133.673 334.276C133.704 334.339 133.72 334.407 133.72 334.476Z" fill="#CCCCCC" fill-opacity="0.37"/>
<path d="M200.374 45.125C201.028 53.264 200.714 62.5013 193.21 68.5391C191.452 69.9669 189.352 71.0626 187.051 71.7529C186.097 72.036 185.687 70.7608 186.634 70.4798C190.489 69.3357 193.522 66.8215 195.542 63.8819C197.911 60.4359 198.815 56.4605 199.013 52.5202C199.105 50.0538 199.036 47.585 198.806 45.125C198.738 44.2769 200.306 44.2804 200.374 45.125V45.125Z" fill="#3F3D56"/>
<path d="M188.685 63.7499C186.825 64.4775 184.875 65.2177 183.404 66.4548C182.062 67.5832 181.124 69.2292 181.668 70.8376C182.56 73.4765 186.534 74.4714 189.304 75.1008C189.498 75.152 189.661 75.2646 189.759 75.415C189.856 75.5654 189.88 75.7417 189.826 75.9069C189.772 76.072 189.644 76.213 189.469 76.3001C189.294 76.3872 189.085 76.4137 188.887 76.3739C186.101 75.7409 182.976 74.8571 181.155 72.8483C179.001 70.4714 180.024 67.3383 182.444 65.3995C184.002 64.1504 185.963 63.3648 187.893 62.6099C188.803 62.2542 189.6 63.3919 188.685 63.7499H188.685Z" fill="#3F3D56"/>
</svg>
