<svg width="2060" height="2050" viewBox="0 0 2060 2050" fill="none" xmlns="http://www.w3.org/2000/svg">
<path d="M582.033 1760.58C582.033 1760.58 577.624 1545.7 761.747 1440.17C761.747 1440.17 764.301 1643.2 582.033 1760.58Z" fill="#035397"/>
<path d="M595.834 1740.25C595.476 1740.25 595.124 1740.15 594.812 1739.98C594.501 1739.8 594.241 1739.55 594.058 1739.24C593.875 1738.94 593.775 1738.59 593.769 1738.23C593.762 1737.88 593.849 1737.52 594.021 1737.21L743.124 1466.28C743.386 1465.8 743.829 1465.45 744.354 1465.3C744.88 1465.14 745.445 1465.2 745.926 1465.46C746.407 1465.72 746.763 1466.16 746.918 1466.69C747.073 1467.21 747.012 1467.77 746.75 1468.25L597.647 1739.18C597.469 1739.5 597.207 1739.77 596.888 1739.96C596.569 1740.15 596.205 1740.25 595.834 1740.25Z" fill="#9AB3DA"/>
<path d="M563.575 1725.07C563.575 1725.07 518.255 1514.95 678.935 1376.57C678.935 1376.57 720.135 1575.42 563.575 1725.07Z" fill="#9AB3DA"/>
<path d="M572.68 1702.52H572.062C571.543 1702.36 571.113 1701.99 570.866 1701.5C570.619 1701.02 570.575 1700.46 570.744 1699.94L665.504 1405.77C665.585 1405.5 665.719 1405.25 665.897 1405.03C666.076 1404.81 666.295 1404.63 666.544 1404.5C666.793 1404.36 667.065 1404.28 667.346 1404.25C667.627 1404.22 667.911 1404.25 668.182 1404.33C668.452 1404.41 668.704 1404.55 668.923 1404.72C669.142 1404.9 669.324 1405.12 669.457 1405.37C669.591 1405.61 669.675 1405.89 669.703 1406.17C669.732 1406.45 669.705 1406.73 669.624 1407L574.864 1701.17C574.708 1701.61 574.407 1701.98 574.01 1702.23C573.613 1702.48 573.144 1702.58 572.68 1702.52V1702.52Z" fill="#035397"/>
<path d="M566.953 1771.81C566.953 1771.81 548.083 1593.96 384.973 1525.81C384.973 1525.98 404.172 1693.87 566.953 1771.81Z" fill="#035397"/>
<path d="M553.234 1756.81C552.903 1756.81 552.578 1756.73 552.284 1756.58C551.99 1756.43 551.736 1756.22 551.545 1755.95L400.011 1547.79C399.689 1547.35 399.555 1546.8 399.64 1546.26C399.725 1545.72 400.022 1545.24 400.464 1544.92C400.907 1544.6 401.459 1544.47 402 1544.55C402.541 1544.64 403.026 1544.93 403.348 1545.37L554.882 1753.57C555.1 1753.87 555.23 1754.23 555.258 1754.61C555.286 1754.98 555.211 1755.35 555.042 1755.69C554.872 1756.02 554.614 1756.3 554.295 1756.5C553.976 1756.7 553.609 1756.8 553.234 1756.81Z" fill="#9AB3DA"/>
<path d="M557.477 1734.75C557.477 1734.75 703.573 1514.99 582.197 1285.6C582.239 1285.6 445.908 1494.29 557.477 1734.75Z" fill="#035397"/>
<path d="M557.931 1704.62C557.66 1704.6 557.395 1704.53 557.151 1704.41C556.907 1704.3 556.689 1704.13 556.509 1703.93C556.329 1703.73 556.191 1703.49 556.103 1703.24C556.014 1702.98 555.977 1702.71 555.994 1702.44L579.808 1324.3C579.824 1324.03 579.893 1323.77 580.012 1323.52C580.13 1323.28 580.296 1323.07 580.499 1322.89C580.701 1322.71 580.937 1322.57 581.194 1322.48C581.45 1322.39 581.721 1322.36 581.991 1322.37C582.262 1322.39 582.527 1322.46 582.77 1322.58C583.014 1322.69 583.232 1322.86 583.412 1323.06C583.592 1323.26 583.73 1323.5 583.818 1323.75C583.907 1324.01 583.944 1324.28 583.928 1324.55L559.991 1702.53C559.996 1702.8 559.947 1703.07 559.846 1703.32C559.745 1703.58 559.594 1703.81 559.402 1704C559.21 1704.2 558.981 1704.35 558.729 1704.46C558.476 1704.56 558.205 1704.62 557.931 1704.62Z" fill="#9AB3DA"/>
<path d="M551.215 1727.12C551.215 1727.12 596.535 1517 435.855 1378.62C435.855 1378.62 394.655 1577.47 551.215 1727.12Z" fill="#9AB3DA"/>
<path d="M541.944 1704.57C541.504 1704.58 541.074 1704.44 540.718 1704.18C540.362 1703.92 540.099 1703.56 539.967 1703.14L445.207 1408.96C445.126 1408.7 445.099 1408.41 445.127 1408.13C445.156 1407.85 445.239 1407.58 445.373 1407.34C445.507 1407.09 445.689 1406.87 445.908 1406.69C446.127 1406.51 446.378 1406.38 446.649 1406.3C446.919 1406.22 447.203 1406.19 447.484 1406.22C447.765 1406.25 448.038 1406.33 448.287 1406.47C448.535 1406.6 448.755 1406.78 448.934 1407C449.112 1407.22 449.246 1407.47 449.327 1407.74L544.087 1701.91C544.256 1702.43 544.212 1702.99 543.965 1703.47C543.718 1703.96 543.287 1704.32 542.769 1704.49L541.944 1704.57Z" fill="#035397"/>
<path d="M698.34 1712.45L672.59 1929.05H443.93L418.18 1712.45C510.765 1695.23 605.755 1695.23 698.34 1712.45V1712.45Z" fill="#D82148"/>
<path d="M629.001 1817C587.471 1821.43 578.531 1827.94 568.231 1873.7C562.957 1897.07 541.986 1916.05 522.581 1929.05H567.448C584.236 1914.52 595.035 1894.32 597.771 1872.35C603.621 1829.99 633.491 1833.4 665.751 1837.17C671.627 1837.89 677.558 1838.07 683.467 1837.7L688.04 1799.24C676.339 1810.23 656.852 1814 629.001 1817Z" fill="#F1F1F1"/>
<path d="M533.87 1823.15C532.51 1777.02 536.96 1758.57 598.43 1757.22C638.27 1756.32 654.544 1727.04 661.136 1706.54C649.573 1704.98 638.01 1703.62 626.446 1702.44C621.914 1719.09 606.876 1740.24 559.331 1738.56C481.752 1735.82 528.102 1807.24 489.621 1830.12C466.796 1843.69 445.166 1833.56 431.405 1823.11L435.525 1858.61C476.56 1885.79 535.147 1865.5 533.87 1823.15Z" fill="#F1F1F1"/>
<path d="M470.01 1768.45C454.024 1772.55 445.619 1805.68 470.71 1805.68C495.801 1805.68 496.79 1761.65 470.01 1768.45Z" fill="#F1F1F1"/>
<path d="M1417.49 575.189L1394.95 625.947H1354.12L1334.59 581.872L1374.56 577.239L1417.49 575.189Z" fill="#035397"/>
<path d="M1480.28 353.625C1480.61 367.866 1478.03 382.026 1472.69 395.242C1467.35 408.458 1459.36 420.454 1449.21 430.5C1437.88 442.034 1430.74 456.993 1428.9 473.017L1420.95 535.829H1327.88L1319.92 472.976C1318 456.776 1310.76 441.66 1299.32 429.967C1287.12 417.749 1278.11 402.74 1273.08 386.252C1268.06 369.765 1267.17 352.303 1270.51 335.397C1273.84 318.49 1281.28 302.654 1292.19 289.276C1303.1 275.898 1317.14 265.387 1333.08 258.662C1349.02 251.937 1366.38 249.204 1383.62 250.703C1400.87 252.202 1417.48 257.886 1432.01 267.259C1446.54 276.631 1458.53 289.405 1466.95 304.462C1475.36 319.519 1479.94 336.399 1480.28 353.625V353.625Z" fill="#D82148"/>
<path d="M1374.43 425.785C1371.7 425.785 1369.03 424.979 1366.76 423.47C1364.49 421.961 1362.73 419.816 1361.68 417.306C1360.64 414.796 1360.36 412.035 1360.9 409.37C1361.43 406.706 1362.74 404.259 1364.67 402.338C1366.6 400.417 1369.06 399.109 1371.74 398.579C1374.42 398.049 1377.19 398.321 1379.71 399.36C1382.24 400.4 1384.39 402.16 1385.91 404.419C1387.42 406.678 1388.23 409.333 1388.23 412.05C1388.23 413.854 1387.88 415.64 1387.18 417.306C1386.49 418.973 1385.47 420.487 1384.19 421.762C1382.91 423.037 1381.39 424.049 1379.71 424.739C1378.04 425.43 1376.24 425.785 1374.43 425.785V425.785ZM1374.43 401.882C1372.4 401.882 1370.42 402.481 1368.73 403.602C1367.05 404.724 1365.73 406.319 1364.95 408.184C1364.18 410.05 1363.97 412.102 1364.37 414.083C1364.77 416.063 1365.74 417.882 1367.18 419.31C1368.61 420.738 1370.44 421.71 1372.43 422.104C1374.42 422.498 1376.48 422.296 1378.36 421.523C1380.23 420.75 1381.83 419.442 1382.96 417.763C1384.09 416.084 1384.69 414.11 1384.69 412.091C1384.7 410.743 1384.44 409.407 1383.93 408.159C1383.42 406.911 1382.67 405.776 1381.72 404.819C1380.76 403.862 1379.63 403.103 1378.38 402.585C1377.13 402.067 1375.79 401.8 1374.43 401.8V401.882Z" fill="white"/>
<path d="M1374.43 533.861C1373.96 533.861 1373.51 533.675 1373.18 533.344C1372.85 533.014 1372.66 532.565 1372.66 532.098V424.022C1372.66 423.554 1372.85 423.106 1373.18 422.775C1373.51 422.445 1373.96 422.259 1374.43 422.259C1374.9 422.259 1375.35 422.445 1375.68 422.775C1376.02 423.106 1376.2 423.554 1376.2 424.022V532.139C1376.19 532.599 1376 533.037 1375.67 533.359C1375.34 533.681 1374.89 533.861 1374.43 533.861V533.861Z" fill="white"/>
<path d="M1374.43 391.96C1373.96 391.96 1373.51 391.774 1373.18 391.444C1372.85 391.113 1372.66 390.665 1372.66 390.197V372.403C1372.66 371.936 1372.85 371.487 1373.18 371.157C1373.51 370.826 1373.96 370.64 1374.43 370.64C1374.9 370.64 1375.35 370.826 1375.68 371.157C1376.02 371.487 1376.2 371.936 1376.2 372.403V390.156C1376.21 390.391 1376.17 390.625 1376.08 390.843C1375.99 391.062 1375.86 391.261 1375.7 391.429C1375.53 391.597 1375.34 391.731 1375.12 391.822C1374.9 391.913 1374.67 391.96 1374.43 391.96V391.96Z" fill="white"/>
<path d="M1389.96 398.356C1389.62 398.349 1389.28 398.243 1389 398.048C1388.71 397.854 1388.49 397.581 1388.36 397.263C1388.23 396.945 1388.19 396.596 1388.26 396.258C1388.32 395.92 1388.49 395.609 1388.73 395.363L1401.34 382.817C1401.5 382.653 1401.7 382.522 1401.91 382.433C1402.13 382.345 1402.36 382.299 1402.59 382.299C1402.83 382.299 1403.06 382.345 1403.27 382.433C1403.49 382.522 1403.68 382.653 1403.85 382.817C1404.01 382.981 1404.14 383.176 1404.23 383.391C1404.32 383.605 1404.37 383.835 1404.37 384.067C1404.37 384.3 1404.32 384.529 1404.23 384.744C1404.14 384.959 1404.01 385.154 1403.85 385.318L1391.2 397.7C1391.05 397.887 1390.86 398.042 1390.65 398.155C1390.44 398.267 1390.2 398.336 1389.96 398.356V398.356Z" fill="white"/>
<path d="M1414.27 413.813H1396.43C1395.96 413.813 1395.51 413.627 1395.18 413.297C1394.85 412.966 1394.66 412.518 1394.66 412.05C1394.66 411.583 1394.85 411.134 1395.18 410.803C1395.51 410.473 1395.96 410.287 1396.43 410.287H1414.27C1414.74 410.287 1415.19 410.473 1415.53 410.803C1415.86 411.134 1416.04 411.583 1416.04 412.05C1416.04 412.518 1415.86 412.966 1415.53 413.297C1415.19 413.627 1414.74 413.813 1414.27 413.813V413.813Z" fill="white"/>
<path d="M1402.61 441.816C1402.15 441.807 1401.7 441.615 1401.38 441.283L1388.77 428.737C1388.44 428.405 1388.25 427.955 1388.25 427.486C1388.25 427.017 1388.44 426.567 1388.77 426.236C1389.1 425.904 1389.55 425.718 1390.03 425.718C1390.5 425.718 1390.95 425.904 1391.28 426.236L1403.89 438.782C1404.15 439.028 1404.32 439.347 1404.4 439.695C1404.47 440.044 1404.44 440.406 1404.3 440.735C1404.16 441.063 1403.92 441.342 1403.62 441.535C1403.32 441.728 1402.97 441.826 1402.61 441.816V441.816Z" fill="white"/>
<path d="M1346.25 441.816C1345.91 441.809 1345.57 441.703 1345.28 441.508C1345 441.314 1344.78 441.041 1344.65 440.723C1344.51 440.405 1344.48 440.056 1344.54 439.718C1344.61 439.38 1344.77 439.069 1345.02 438.823L1357.62 426.277C1357.79 426.113 1357.98 425.982 1358.2 425.893C1358.41 425.805 1358.65 425.759 1358.88 425.759C1359.11 425.759 1359.34 425.805 1359.56 425.893C1359.77 425.982 1359.97 426.113 1360.14 426.277C1360.3 426.441 1360.43 426.636 1360.52 426.85C1360.61 427.065 1360.66 427.295 1360.66 427.527C1360.66 427.76 1360.61 427.989 1360.52 428.204C1360.43 428.419 1360.3 428.614 1360.14 428.778L1347.53 441.324C1347.36 441.486 1347.16 441.613 1346.94 441.698C1346.72 441.782 1346.49 441.822 1346.25 441.816Z" fill="white"/>
<path d="M1352.47 413.813H1334.63C1334.16 413.813 1333.71 413.627 1333.38 413.297C1333.05 412.966 1332.86 412.518 1332.86 412.05C1332.86 411.583 1333.05 411.134 1333.38 410.803C1333.71 410.473 1334.16 410.287 1334.63 410.287H1352.47C1352.94 410.287 1353.39 410.473 1353.73 410.803C1354.06 411.134 1354.24 411.583 1354.24 412.05C1354.24 412.518 1354.06 412.966 1353.73 413.297C1353.39 413.627 1352.94 413.813 1352.47 413.813Z" fill="white"/>
<path d="M1358.9 398.356C1358.43 398.347 1357.99 398.156 1357.66 397.823L1345.02 385.4C1344.85 385.236 1344.72 385.041 1344.63 384.826C1344.54 384.612 1344.5 384.382 1344.5 384.149C1344.5 383.917 1344.54 383.687 1344.63 383.473C1344.72 383.258 1344.85 383.063 1345.02 382.899C1345.18 382.735 1345.38 382.604 1345.59 382.515C1345.81 382.427 1346.04 382.381 1346.27 382.381C1346.51 382.381 1346.74 382.427 1346.95 382.515C1347.17 382.604 1347.36 382.735 1347.53 382.899L1360.14 395.445C1360.35 395.694 1360.49 395.998 1360.54 396.322C1360.6 396.647 1360.55 396.979 1360.43 397.282C1360.3 397.585 1360.09 397.846 1359.82 398.036C1359.55 398.225 1359.23 398.336 1358.9 398.356V398.356Z" fill="white"/>
<path d="M1426.18 559.076C1424.89 560.406 1423.22 561.32 1421.4 561.7C1423.39 561.785 1425.27 562.637 1426.64 564.076C1428 565.514 1428.76 567.427 1428.73 569.408C1428.71 571.668 1427.82 573.835 1426.26 575.476C1424.66 577.133 1422.51 578.141 1420.2 578.305L1329.07 584.742C1327.99 584.851 1326.9 584.734 1325.88 584.398C1324.85 584.062 1323.9 583.515 1323.1 582.793C1322.29 582.07 1321.65 581.188 1321.21 580.203C1320.77 579.218 1320.54 578.153 1320.54 577.075C1320.56 574.804 1321.46 572.627 1323.06 571.007C1324.35 569.648 1326.03 568.718 1327.88 568.342C1325.89 568.247 1324.02 567.391 1322.65 565.955C1321.29 564.519 1320.53 562.612 1320.54 560.634C1320.58 558.546 1321.35 556.536 1322.71 554.945C1324.07 553.354 1325.94 552.278 1328 551.901C1325.99 551.837 1324.09 550.995 1322.7 549.555C1321.3 548.116 1320.53 546.191 1320.54 544.193C1320.56 541.935 1321.46 539.774 1323.06 538.166C1324.62 536.483 1326.77 535.457 1329.07 535.296L1420.12 528.9C1421.2 528.791 1422.3 528.909 1423.33 529.247C1424.36 529.585 1425.31 530.135 1426.11 530.862C1426.92 531.589 1427.56 532.477 1428 533.466C1428.43 534.456 1428.66 535.527 1428.65 536.608C1428.63 538.858 1427.75 541.016 1426.18 542.635C1424.91 543.999 1423.23 544.931 1421.4 545.3C1423.41 545.354 1425.32 546.192 1426.71 547.634C1428.11 549.076 1428.88 551.006 1428.86 553.008C1428.8 555.301 1427.83 557.479 1426.18 559.076V559.076Z" fill="#9AB3DA"/>
<path d="M1331.21 553.5C1330.67 553.5 1330.14 553.284 1329.76 552.899C1329.37 552.515 1329.15 551.994 1329.15 551.45C1329.15 550.906 1329.37 550.385 1329.76 550C1330.14 549.616 1330.67 549.4 1331.21 549.4L1417.28 543.25C1417.82 543.215 1418.36 543.393 1418.78 543.745C1419.19 544.097 1419.45 544.596 1419.51 545.136C1419.53 545.405 1419.5 545.676 1419.41 545.934C1419.33 546.191 1419.2 546.429 1419.02 546.635C1418.84 546.841 1418.63 547.01 1418.39 547.133C1418.14 547.255 1417.88 547.329 1417.61 547.35L1331.38 553.5H1331.21Z" fill="#035397"/>
<path d="M1331.21 569.9C1330.67 569.9 1330.14 569.684 1329.76 569.299C1329.37 568.915 1329.15 568.394 1329.15 567.85C1329.15 567.306 1329.37 566.785 1329.76 566.4C1330.14 566.016 1330.67 565.8 1331.21 565.8L1416.21 559.486C1416.76 559.448 1417.29 559.627 1417.71 559.985C1418.12 560.342 1418.37 560.849 1418.41 561.392C1418.45 561.936 1418.27 562.473 1417.91 562.884C1417.55 563.295 1417.04 563.548 1416.5 563.586L1331.38 569.9H1331.21Z" fill="#035397"/>
<path d="M1446.78 324.528C1454.3 317.279 1450.56 301.305 1438.43 288.849C1426.3 276.394 1410.37 272.172 1402.86 279.421C1395.34 286.67 1399.08 302.643 1411.21 315.099C1423.34 327.555 1439.26 331.777 1446.78 324.528Z" fill="#F1F1F1"/>
<path d="M1389.8 77.2031L1382.1 218.694H1366.6L1358.9 77.2031H1389.8Z" fill="#F1F1F1"/>
<path d="M1187.3 148.01L1282.35 253.462L1271.43 264.368L1165.47 169.781L1187.3 148.01Z" fill="#F1F1F1"/>
<path d="M1094.44 340.587L1236.58 348.254V363.67L1094.44 371.337V340.587Z" fill="#F1F1F1"/>
<path d="M1165.55 542.102L1271.56 447.474L1282.47 458.38L1187.43 563.832L1165.55 542.102Z" fill="#F1F1F1"/>
<path d="M1561.56 563.709L1466.47 458.257L1477.43 447.351L1583.4 541.979L1561.56 563.709Z" fill="#F1F1F1"/>
<path d="M1654.43 371.173L1512.29 363.506V348.09L1654.43 340.423V371.173Z" fill="#F1F1F1"/>
<path d="M1583.32 169.658L1477.31 264.245L1466.39 253.339L1561.44 147.887L1583.32 169.658Z" fill="#F1F1F1"/>
<path d="M1176.96 1673.82L1175.44 1713.39L1173.33 1768.12H1136.25L1132.46 1728.31L1126.98 1670.75L1176.96 1673.82Z" fill="#ECBDBB"/>
<path d="M1176.96 1673.82L1175.44 1713.39L1132.46 1728.31L1126.98 1670.75L1176.96 1673.82Z" fill="#035397"/>
<path d="M1104.16 1919.5L1285.98 1920.03C1285.98 1920.03 1293.56 1848.12 1234.31 1838.89C1232.53 1838.6 1230.78 1838.15 1229.08 1837.54C1197.02 1825.77 1182.11 1754.84 1182.11 1754.84C1182.11 1754.84 1144 1745.62 1121.34 1758.45C1121.34 1758.45 1105.97 1832.66 1103.5 1896.29C1103.13 1904.78 1103.91 1911.58 1104.16 1919.5Z" fill="#035397"/>
<path d="M1206.54 1852.95C1206.28 1853 1206.02 1853 1205.76 1852.95C1194.22 1847.21 1184.47 1838.45 1177.54 1827.62C1161.06 1803.75 1149.89 1759.64 1149.44 1757.92C1149.31 1757.37 1149.4 1756.8 1149.69 1756.32C1149.99 1755.85 1150.46 1755.5 1151 1755.37C1151.55 1755.24 1152.13 1755.33 1152.61 1755.63C1153.08 1755.92 1153.43 1756.39 1153.56 1756.93C1153.56 1757.38 1164.97 1802.03 1181.08 1825.44C1187.55 1835.46 1196.54 1843.61 1207.16 1849.1C1207.55 1849.3 1207.86 1849.61 1208.06 1850C1208.26 1850.38 1208.33 1850.82 1208.26 1851.25C1208.19 1851.68 1207.99 1852.08 1207.68 1852.38C1207.37 1852.69 1206.97 1852.89 1206.54 1852.95V1852.95Z" fill="#9AB3DA"/>
<path d="M1102.31 1921.34H1287.17C1287.17 1921.34 1294.38 1847.05 1235.13 1837.83C1233.35 1837.54 1231.6 1837.09 1229.9 1836.47C1212.68 1842.75 1189.9 1858.28 1181.41 1896.58H1102.47C1102.14 1905.11 1102.06 1913.43 1102.31 1921.34Z" fill="#9AB3DA"/>
<path d="M1133.82 1855.29C1140.72 1855.29 1146.31 1844.5 1146.31 1831.18C1146.31 1817.87 1140.72 1807.07 1133.82 1807.07C1126.93 1807.07 1121.34 1817.87 1121.34 1831.18C1121.34 1844.5 1126.93 1855.29 1133.82 1855.29Z" fill="#9AB3DA"/>
<path d="M1117.88 1657.1C1117.88 1657.1 1069.84 1298.35 1054.72 1202.65C1054.72 1202.65 1034.12 902 1112.4 896.506C1190.68 891.012 1222.28 977.153 1227.76 1035.91C1233.24 1094.66 1198.92 1582.56 1183.8 1659.11L1117.88 1657.1Z" fill="#D82148"/>
<path d="M1218 1028.81C1217.72 1028.88 1217.44 1028.88 1217.17 1028.81C1184.87 1012.41 1176.42 969.937 1175.97 968.133C1175.94 967.699 1176.06 967.268 1176.33 966.922C1176.59 966.576 1176.98 966.339 1177.41 966.258C1177.84 966.176 1178.28 966.256 1178.65 966.481C1179.03 966.706 1179.31 967.061 1179.43 967.477C1179.43 967.887 1187.92 1009.87 1218.7 1025.7C1218.96 1025.9 1219.16 1026.18 1219.28 1026.49C1219.39 1026.81 1219.41 1027.15 1219.34 1027.48C1219.27 1027.8 1219.1 1028.1 1218.86 1028.34C1218.63 1028.58 1218.32 1028.74 1218 1028.81Z" fill="#ECBDBB"/>
<path d="M1203.79 1356.04C1203.86 1326.6 1188.35 1302.7 1169.14 1302.66C1149.94 1302.61 1134.32 1326.44 1134.25 1355.88C1134.18 1385.32 1149.7 1409.21 1168.9 1409.26C1188.1 1409.3 1203.73 1385.47 1203.79 1356.04Z" fill="#F1F1F1"/>
<path d="M1137.12 1654.06C1136.68 1654.06 1136.25 1653.9 1135.92 1653.61C1135.59 1653.31 1135.39 1652.9 1135.35 1652.46C1118.04 1442.75 1084.18 1150.13 1083.85 1147.18C1083.8 1146.94 1083.79 1146.69 1083.84 1146.45C1083.89 1146.21 1083.99 1145.98 1084.14 1145.78C1084.28 1145.58 1084.46 1145.41 1084.68 1145.29C1084.89 1145.16 1085.13 1145.08 1085.37 1145.05C1085.62 1145.02 1085.87 1145.05 1086.1 1145.12C1086.34 1145.19 1086.56 1145.31 1086.74 1145.47C1086.93 1145.64 1087.08 1145.84 1087.18 1146.06C1087.29 1146.28 1087.35 1146.52 1087.35 1146.77C1087.68 1149.68 1121.55 1442.38 1138.85 1652.14C1138.88 1652.6 1138.74 1653.05 1138.43 1653.41C1138.13 1653.76 1137.71 1653.98 1137.24 1654.02V1654.02L1137.12 1654.06Z" fill="#ECBDBB"/>
<path d="M1097.28 1653C1097.28 1653 1157.72 1633.85 1203.7 1655.05L1196.82 1709.04L1100.7 1709.74L1097.28 1653Z" fill="#F1F1F1"/>
<path d="M1089.25 1096.95C1088.83 1096.97 1088.42 1096.83 1088.09 1096.58C1087.77 1096.32 1087.54 1095.95 1087.46 1095.55C1087.37 1095.14 1087.44 1094.72 1087.64 1094.35C1087.84 1093.99 1088.16 1093.7 1088.55 1093.55C1101.32 1088.26 1115.57 1080.92 1116.36 1078.26C1117.47 1074.4 1119.98 1005.94 1121.42 960.835C1121.42 960.6 1121.46 960.366 1121.55 960.149C1121.64 959.932 1121.77 959.736 1121.95 959.573C1122.12 959.411 1122.32 959.286 1122.54 959.207C1122.76 959.128 1123 959.096 1123.24 959.113C1123.47 959.118 1123.7 959.169 1123.91 959.263C1124.12 959.356 1124.32 959.491 1124.48 959.658C1124.64 959.826 1124.76 960.023 1124.85 960.239C1124.93 960.455 1124.97 960.685 1124.97 960.917C1124.6 972.479 1121.3 1074.04 1119.73 1079.24C1118.17 1084.45 1096.46 1094.04 1089.86 1096.75C1089.67 1096.86 1089.46 1096.93 1089.25 1096.95V1096.95Z" fill="#ECBDBB"/>
<path d="M967.17 953.783C967.17 953.783 946.57 975.841 946.075 980.433C945.581 985.025 855.435 1529.34 843.075 1679.65H903.516C903.516 1679.65 1094.4 1138.45 1098.52 1115.2C1102.64 1091.95 1106.76 956.653 1105.4 918.4C1104.04 880.147 1007.34 885.272 967.17 953.783Z" fill="#D82148"/>
<path d="M1098.68 1116.96H1098.35C1098.12 1116.92 1097.9 1116.84 1097.7 1116.71C1097.51 1116.59 1097.34 1116.43 1097.2 1116.24C1097.07 1116.05 1096.97 1115.83 1096.92 1115.6C1096.87 1115.38 1096.87 1115.14 1096.91 1114.91C1100.04 1097.32 1103.38 1011.06 1103.95 952.799C1103.94 952.563 1103.97 952.326 1104.05 952.103C1104.13 951.881 1104.26 951.679 1104.43 951.512C1104.6 951.344 1104.8 951.215 1105.03 951.133C1105.25 951.051 1105.49 951.018 1105.73 951.036C1106.19 951.047 1106.63 951.237 1106.95 951.567C1107.28 951.896 1107.46 952.339 1107.46 952.799C1106.96 1005.03 1103.75 1096.3 1100.37 1115.49C1100.3 1115.89 1100.1 1116.26 1099.79 1116.53C1099.48 1116.8 1099.09 1116.95 1098.68 1116.96V1116.96Z" fill="#ECBDBB"/>
<path d="M948.63 1039.06C948.16 1039.06 947.709 1038.88 947.377 1038.55C947.045 1038.22 946.858 1037.77 946.858 1037.3C946.858 1036.83 947.045 1036.38 947.377 1036.05C947.709 1035.72 948.16 1035.54 948.63 1035.54C950.237 1035.54 988.512 1032.38 996.422 982.688C996.452 982.457 996.529 982.234 996.647 982.033C996.766 981.833 996.925 981.658 997.114 981.52C997.302 981.382 997.517 981.283 997.746 981.23C997.974 981.178 998.21 981.171 998.441 981.212C998.905 981.283 999.322 981.534 999.6 981.911C999.879 982.288 999.995 982.759 999.924 983.221C991.684 1035.78 949.289 1038.98 948.836 1039.02L948.63 1039.06Z" fill="#ECBDBB"/>
<path d="M902.28 1643.81H901.703C901.263 1643.66 900.899 1643.35 900.691 1642.93C900.483 1642.52 900.447 1642.04 900.591 1641.6L1072.6 1137.3C1072.66 1137.06 1072.77 1136.84 1072.92 1136.65C1073.07 1136.46 1073.26 1136.3 1073.48 1136.18C1073.69 1136.07 1073.93 1136 1074.17 1135.98C1074.42 1135.96 1074.66 1135.99 1074.9 1136.07C1075.13 1136.15 1075.34 1136.27 1075.52 1136.44C1075.7 1136.61 1075.84 1136.81 1075.94 1137.03C1076.04 1137.25 1076.09 1137.5 1076.09 1137.74C1076.09 1137.98 1076.04 1138.22 1075.94 1138.45L903.928 1642.75C903.79 1643.07 903.56 1643.34 903.266 1643.53C902.973 1643.72 902.63 1643.82 902.28 1643.81V1643.81Z" fill="#ECBDBB"/>
<path d="M965.134 1361.7C969.975 1332.66 958.542 1306.58 939.596 1303.46C920.651 1300.33 901.367 1321.33 896.526 1350.37C891.685 1379.41 903.118 1405.49 922.064 1408.62C941.009 1411.75 960.292 1390.74 965.134 1361.7Z" fill="#F1F1F1"/>
<path d="M897.13 1670.75L884.276 1727.37L875.006 1768.12H837.926L844.023 1705.68L847.155 1673.82L897.13 1670.75Z" fill="#ECBDBB"/>
<path d="M847.155 1673.82L897.13 1670.75L884.276 1727.37L844.023 1705.68L847.155 1673.82Z" fill="#035397"/>
<path d="M906.647 1918.8L726.644 1919.83C726.644 1919.83 717.333 1849.1 776.62 1839.88C778.644 1839.44 780.628 1838.83 782.553 1838.07C814.606 1826.3 829.15 1754.8 829.15 1754.8C829.15 1754.8 867.26 1745.58 889.92 1758.41C889.92 1758.41 904.958 1832.21 907.43 1896C907.76 1904.53 906.894 1910.89 906.647 1918.8Z" fill="#035397"/>
<path d="M804.678 1852.95C804.131 1853.06 803.566 1852.94 803.106 1852.63C802.647 1852.32 802.33 1851.84 802.226 1851.29C802.123 1850.75 802.24 1850.19 802.553 1849.73C802.866 1849.27 803.349 1848.96 803.895 1848.85C814.642 1843.35 823.738 1835.12 830.263 1824.99C846.331 1801.74 857.661 1756.93 857.785 1756.48C857.916 1755.94 858.258 1755.47 858.738 1755.18C859.217 1754.88 859.793 1754.79 860.339 1754.92C860.885 1755.05 861.357 1755.39 861.651 1755.87C861.944 1756.35 862.036 1756.92 861.905 1757.46C861.451 1759.35 850.286 1803.47 833.806 1827.16C826.879 1838 817.124 1846.76 805.584 1852.5C805.324 1852.73 805.013 1852.88 804.678 1852.95V1852.95Z" fill="#9AB3DA"/>
<path d="M908.954 1921.34H724.09C724.09 1921.34 716.88 1847.05 776.125 1837.83C777.908 1837.54 779.66 1837.09 781.358 1836.47C798.579 1842.75 821.363 1858.28 829.85 1896.58H908.789C909.119 1905.11 909.201 1913.43 908.954 1921.34Z" fill="#9AB3DA"/>
<path d="M877.437 1855.29C884.331 1855.29 889.92 1844.5 889.92 1831.18C889.92 1817.87 884.331 1807.07 877.437 1807.07C870.542 1807.07 864.953 1817.87 864.953 1831.18C864.953 1844.5 870.542 1855.29 877.437 1855.29Z" fill="#9AB3DA"/>
<path d="M826.76 1647.5L819.88 1706.3L911.22 1712.45L925.64 1657.79C925.64 1657.79 874.14 1635.2 826.76 1647.5Z" fill="#F1F1F1"/>
<path d="M1214.37 602.208C1214.37 602.208 1299.53 702.74 1335.74 809.586C1338.85 818.776 1338.35 828.792 1334.34 837.63C1321.98 864.731 1298.91 921.147 1284.9 929.347C1270.9 937.547 1216.92 920.45 1217.95 895.85C1218.98 871.25 1237.11 810.775 1237.11 810.775C1237.11 810.775 1188.7 755.425 1152.65 705.2C1116.6 654.975 1155.66 560.675 1214.37 602.208Z" fill="#9AB3DA"/>
<path d="M1299.86 815.9C1299.5 815.909 1299.15 815.824 1298.83 815.654C1265.66 797.04 1243.58 811.964 1243.33 812.128C1243.11 812.298 1242.86 812.422 1242.59 812.492C1242.32 812.562 1242.04 812.576 1241.76 812.534C1241.48 812.492 1241.22 812.394 1240.98 812.247C1240.74 812.1 1240.54 811.906 1240.38 811.678C1240.22 811.449 1240.11 811.191 1240.05 810.918C1240 810.646 1240 810.365 1240.05 810.092C1240.11 809.82 1240.22 809.562 1240.38 809.334C1240.54 809.106 1240.75 808.913 1240.99 808.766C1241.97 808.069 1265.46 792.366 1300.85 812.087C1301.23 812.313 1301.53 812.657 1301.7 813.068C1301.87 813.478 1301.91 813.933 1301.79 814.363C1301.68 814.793 1301.43 815.175 1301.08 815.453C1300.74 815.73 1300.31 815.887 1299.86 815.9Z" fill="#035397"/>
<path d="M1223.39 896.875L1213.71 924.55C1217.37 934.444 1224.76 942.531 1234.31 947.1C1243.67 951.984 1254.35 953.778 1264.8 952.225L1283.42 919.425C1283.42 919.425 1262.86 883.222 1223.39 896.875Z" fill="#035397"/>
<path d="M1255.98 945.378C1245.27 966.329 1218.9 1010.65 1210.66 1022.54C1200.24 1014.56 1191.96 1004.14 1186.56 992.2C1200.57 966.739 1217.95 926.19 1217.95 926.19C1246.01 918.728 1255.98 945.378 1255.98 945.378Z" fill="#ECBDBB"/>
<path d="M1072.23 540.708L1034.9 539.642L1042.32 464.612L1042.61 461.496L1071.69 465.842L1071.9 492.205L1072.23 540.708Z" fill="#ECBDBB"/>
<path d="M1071.9 492C1053.03 486.219 1045.37 474.124 1042.32 464.407L1042.61 461.291L1071.69 465.637L1071.9 492Z" fill="#035397"/>
<path d="M955.84 909.708C957.405 909.708 956.375 959.933 957.9 959.933C959.424 959.933 992.425 972.766 1027.45 971.208C1062.47 969.65 1171.65 966.616 1201.52 946.116L1203.08 894.866C1124.76 920.614 1042.36 923.73 955.84 909.708Z" fill="#035397"/>
<path d="M1080.39 917.949C1080.39 917.949 1081.42 968.748 1081.38 970.798C1081.34 972.848 1141.45 968.994 1143.79 968.051C1146.14 967.108 1144.66 913.726 1144.66 913.726C1144.66 913.726 1121.67 916.596 1080.39 917.949Z" fill="#F1F1F1"/>
<path d="M987.276 911.225C987.276 911.225 986.493 970.183 987.276 971.454C988.058 972.725 1002.23 974.037 1002.23 974.037C1002.23 974.037 1001.98 911.758 1001.2 911.512C1000.42 911.266 988.553 909.421 987.276 911.225Z" fill="#F1F1F1"/>
<path d="M1029.51 914.054C1029.51 914.054 1028.72 973.012 1029.51 974.283C1030.29 975.554 1043.43 974.283 1043.43 974.283C1043.43 974.283 1044.21 914.587 1043.43 914.341C1042.65 914.095 1030.78 912.25 1029.51 914.054Z" fill="#F1F1F1"/>
<path d="M1183.06 898.884C1183.06 898.884 1183.64 957.719 1183.06 959.113C1182.48 960.507 1172.55 960.917 1172.55 960.917C1172.55 960.917 1171.98 901.303 1172.55 900.934C1173.13 900.565 1182.07 897.285 1183.06 898.884Z" fill="#F1F1F1"/>
<path d="M1005.03 513.525C1022.24 506.536 1040.84 503.595 1059.38 504.932C1077.91 506.269 1095.89 511.848 1111.91 521.233L1108.82 554.566L1011.75 560.962L1005.03 513.525Z" fill="#035397"/>
<path d="M1219.52 889.7L1204.61 900.442C1204.61 900.442 1101.07 936.85 955.346 917.375L923.91 888.675C924.437 857.299 922.91 825.922 919.337 794.744C917.768 781.282 915.165 767.959 911.55 754.892C911.55 754.605 911.55 754.277 911.262 753.908C905.741 734.351 903.022 704.175 901.374 674.696C900.22 651.121 899.932 628.038 899.932 611.187C899.932 595.484 900.22 585.275 900.22 585.275C901.786 585.275 981.59 540.708 1056.29 539.642C1130.98 538.576 1214.37 602.208 1214.37 602.208C1214.37 602.208 1232.91 762.6 1219.52 889.7Z" fill="#9AB3DA"/>
<path d="M1224.38 785.642C1223.84 785.642 1223.31 785.426 1222.92 785.041C1222.54 784.657 1222.32 784.135 1222.32 783.592C1222.32 709.3 1216.22 640.707 1213.63 614.713C1213.6 614.443 1213.63 614.171 1213.7 613.911C1213.78 613.652 1213.91 613.41 1214.08 613.2C1214.26 612.991 1214.47 612.817 1214.71 612.69C1214.95 612.562 1215.21 612.483 1215.48 612.458C1216.03 612.412 1216.57 612.578 1216.99 612.923C1217.41 613.267 1217.69 613.762 1217.75 614.303C1220.34 640.379 1226.4 709.095 1226.48 783.592C1226.48 784.135 1226.27 784.657 1225.88 785.041C1225.49 785.426 1224.97 785.642 1224.42 785.642H1224.38Z" fill="#035397"/>
<path d="M939.69 688.103C937.588 717.623 932.315 767.315 919.337 794.703C917.768 781.241 915.165 767.918 911.55 754.851C911.55 754.564 911.55 754.236 911.262 753.867C905.741 734.31 903.022 704.134 901.374 674.655C900.22 651.08 899.932 627.997 899.932 611.146C909.981 618.734 918.72 627.902 925.805 638.288C936.061 652.806 940.965 670.402 939.69 688.103V688.103Z" fill="#035397"/>
<path d="M1127.85 909.175C1127.58 909.165 1127.31 909.101 1127.07 908.988C1126.82 908.875 1126.6 908.715 1126.42 908.517C1126.23 908.319 1126.09 908.087 1126 907.834C1125.9 907.581 1125.86 907.312 1125.87 907.043C1135.02 707.906 1062.92 551.327 1062.22 549.769C1062.1 549.524 1062.04 549.259 1062.03 548.99C1062.02 548.72 1062.06 548.451 1062.16 548.198C1062.25 547.945 1062.39 547.712 1062.58 547.514C1062.76 547.316 1062.98 547.156 1063.23 547.043C1063.47 546.93 1063.74 546.866 1064.01 546.855C1064.28 546.844 1064.55 546.887 1064.81 546.98C1065.06 547.073 1065.29 547.216 1065.49 547.399C1065.69 547.582 1065.85 547.802 1065.97 548.047C1066.71 549.605 1139.22 707.127 1130.03 907.248C1130.02 907.517 1129.95 907.781 1129.83 908.024C1129.71 908.267 1129.55 908.484 1129.34 908.663C1129.14 908.842 1128.9 908.979 1128.65 909.067C1128.39 909.155 1128.12 909.192 1127.85 909.175Z" fill="#035397"/>
<path d="M1143.3 909.175C1143.03 909.164 1142.76 909.101 1142.52 908.988C1142.27 908.875 1142.05 908.715 1141.87 908.517C1141.68 908.319 1141.54 908.087 1141.45 907.834C1141.35 907.581 1141.31 907.312 1141.32 907.043C1150.47 707.988 1079.89 553.336 1079.19 551.819C1079.08 551.574 1079.02 551.309 1079 551.039C1078.99 550.77 1079.04 550.501 1079.13 550.248C1079.22 549.994 1079.37 549.762 1079.55 549.564C1079.73 549.366 1079.96 549.206 1080.2 549.092C1080.45 548.979 1080.71 548.916 1080.99 548.905C1081.26 548.894 1081.53 548.937 1081.78 549.03C1082.04 549.123 1082.27 549.266 1082.47 549.449C1082.67 549.632 1082.83 549.852 1082.94 550.097C1083.64 551.655 1154.63 707.127 1145.44 907.248C1145.41 907.785 1145.17 908.287 1144.77 908.648C1144.37 909.008 1143.84 909.197 1143.3 909.175Z" fill="#035397"/>
<path d="M955.84 883.878C955.569 883.873 955.303 883.814 955.055 883.706C954.807 883.599 954.583 883.443 954.395 883.249C954.208 883.055 954.061 882.826 953.962 882.575C953.864 882.324 953.816 882.056 953.821 881.787C954.851 836.031 938.206 728.775 938.042 727.709C937.96 727.165 938.098 726.612 938.426 726.169C938.755 725.727 939.246 725.433 939.793 725.352C940.339 725.27 940.895 725.408 941.34 725.735C941.784 726.061 942.08 726.55 942.162 727.094C942.162 728.16 959.012 835.785 957.982 881.869C957.977 882.142 957.917 882.411 957.806 882.66C957.695 882.91 957.535 883.135 957.336 883.322C957.136 883.509 956.901 883.654 956.644 883.75C956.387 883.846 956.114 883.889 955.84 883.878Z" fill="#035397"/>
<path d="M900.22 585.275L781.77 704.708L733.36 848.7C733.36 848.7 828.656 835.908 917.236 741.608C933.199 716.308 941.43 686.936 940.926 657.066C940.957 642.619 937.223 628.41 930.088 615.828C922.954 603.245 912.663 592.718 900.22 585.275V585.275Z" fill="#9AB3DA"/>
<path d="M917.195 743.658C916.816 743.66 916.443 743.558 916.119 743.363C915.794 743.168 915.53 742.887 915.355 742.552C915.181 742.217 915.102 741.841 915.129 741.465C915.155 741.088 915.286 740.726 915.506 740.419C931.147 715.434 939.241 686.5 938.825 657.066C938.825 644.898 936.104 632.882 930.859 621.89C925.615 610.899 917.977 601.206 908.502 593.516C908.141 593.156 907.928 592.676 907.903 592.169C907.878 591.662 908.043 591.163 908.366 590.77C908.689 590.377 909.147 590.118 909.652 590.042C910.157 589.966 910.672 590.079 911.097 590.359C921.046 598.431 929.065 608.604 934.573 620.142C940.081 631.679 942.941 644.292 942.945 657.066C943.32 687.361 934.924 717.123 918.76 742.797C918.581 743.048 918.347 743.256 918.076 743.405C917.805 743.554 917.504 743.641 917.195 743.658Z" fill="#035397"/>
<path d="M758.08 587.325C758.08 587.325 732.33 610.9 721.535 629.883C710.741 648.866 691.171 767.233 696.815 798.516C702.46 829.799 733.36 848.7 733.36 848.7C733.36 848.7 791.04 827.175 801.34 774.408C811.64 721.641 815.265 657.558 813.7 642.183C812.134 626.808 800.31 603.766 800.31 603.766L758.08 587.325Z" fill="#9AB3DA"/>
<path d="M765.125 832.3C764.7 832.297 764.285 832.164 763.939 831.918C763.593 831.671 763.332 831.324 763.192 830.924C763.052 830.524 763.04 830.091 763.157 829.684C763.275 829.277 763.516 828.916 763.848 828.651C783.336 813.317 795.242 794.99 799.321 774.203C804.475 746.541 808.106 718.619 810.198 690.563C810.213 690.291 810.284 690.026 810.405 689.782C810.527 689.539 810.697 689.322 810.905 689.146C811.113 688.969 811.354 688.837 811.615 688.756C811.876 688.676 812.151 688.649 812.423 688.677C812.694 688.698 812.958 688.771 813.2 688.894C813.442 689.017 813.657 689.186 813.833 689.391C814.01 689.597 814.143 689.836 814.226 690.093C814.309 690.35 814.341 690.621 814.318 690.891C812.218 719.071 808.573 747.115 803.4 774.9C799.28 796.671 786.92 815.9 766.32 831.808C765.985 832.095 765.566 832.268 765.125 832.3Z" fill="#035397"/>
<path d="M761.871 565.103L749.511 598.928C756.664 605.913 765.236 611.294 774.652 614.71C784.067 618.125 794.109 619.496 804.101 618.731L815.76 585.234C815.76 585.234 799.981 556.247 761.871 565.103Z" fill="#035397"/>
<path d="M841.757 492.779L820.91 541.446L806.49 585.521C779.957 586.792 768.874 569.654 768.874 569.654L787.414 539.642L786.92 490.975C786.92 490.975 797.22 462.521 799.527 461.742C806.382 461.176 813.272 461.176 820.127 461.742L827.254 403.194C827.356 402.345 827.626 401.524 828.049 400.778C828.471 400.033 829.038 399.379 829.716 398.853C830.394 398.327 831.17 397.939 831.999 397.713C832.828 397.487 833.694 397.427 834.547 397.536V397.536C836.106 397.724 837.545 398.466 838.597 399.627C839.65 400.787 840.245 402.287 840.274 403.85L841.757 492.779Z" fill="#ECBDBB"/>
<path d="M820.374 505.694C819.757 505.743 819.137 505.743 818.52 505.694C810.651 504.423 809.91 492.082 809.827 490.688C809.827 490.144 810.044 489.623 810.431 489.238C810.817 488.854 811.341 488.638 811.887 488.638C812.433 488.638 812.957 488.854 813.344 489.238C813.73 489.623 813.947 490.144 813.947 490.688C813.947 493.394 815.266 501.184 819.18 501.84C822.043 501.942 824.863 501.118 827.218 499.492C829.572 497.866 831.334 495.525 832.24 492.82C832.88 484.093 832.129 475.32 830.015 466.826C829.315 465.022 823.588 463.833 819.88 463.751C819.609 463.74 819.344 463.677 819.098 463.564C818.852 463.451 818.631 463.291 818.447 463.093C818.263 462.895 818.121 462.663 818.027 462.41C817.934 462.157 817.891 461.888 817.902 461.619C817.97 461.092 818.221 460.606 818.613 460.246C819.005 459.886 819.512 459.676 820.045 459.651C822.022 459.651 831.993 460.266 833.929 465.391C836.291 474.639 837.098 484.212 836.319 493.722C835.215 497.103 833.093 500.065 830.241 502.207C827.389 504.348 823.945 505.565 820.374 505.694V505.694Z" fill="#035397"/>
<path d="M814.03 527.875H813.7C813.432 527.831 813.175 527.734 812.945 527.59C812.714 527.446 812.515 527.258 812.358 527.037C812.201 526.816 812.089 526.566 812.03 526.301C811.97 526.037 811.964 525.764 812.011 525.497C813.758 516.426 813.177 507.062 810.322 498.273C810.12 497.768 810.128 497.203 810.344 496.703C810.56 496.203 810.967 495.809 811.475 495.608C811.984 495.407 812.551 495.415 813.053 495.63C813.556 495.846 813.951 496.251 814.153 496.756C817.312 506.245 817.965 516.382 816.049 526.194C815.962 526.665 815.713 527.09 815.344 527.397C814.976 527.704 814.511 527.873 814.03 527.875V527.875Z" fill="#035397"/>
<path d="M811.64 499.585C809.033 499.601 806.495 498.749 804.43 497.166C804.015 496.813 803.758 496.31 803.715 495.768C803.673 495.226 803.848 494.689 804.204 494.276C804.559 493.862 805.064 493.607 805.609 493.564C806.154 493.522 806.693 493.697 807.108 494.05C807.924 494.644 808.851 495.07 809.834 495.302C810.818 495.535 811.838 495.569 812.835 495.403C813.381 495.322 813.938 495.459 814.382 495.786C814.826 496.113 815.122 496.602 815.204 497.146C815.286 497.689 815.147 498.243 814.819 498.685C814.491 499.127 813.999 499.422 813.453 499.503C812.851 499.575 812.246 499.602 811.64 499.585V499.585Z" fill="#035397"/>
<path d="M823.299 494.419C822.76 494.419 822.242 494.209 821.857 493.833C821.472 493.457 821.25 492.947 821.239 492.41C821.464 488.08 820.776 483.75 819.221 479.7C813.279 479.5 807.333 479.87 801.463 480.807C801.193 480.842 800.918 480.824 800.655 480.753C800.391 480.682 800.144 480.561 799.928 480.395C799.492 480.061 799.207 479.567 799.136 479.023C799.064 478.48 799.213 477.93 799.55 477.496C799.886 477.061 800.381 476.778 800.928 476.707C804.8 476.215 817.655 474.698 820.869 475.928C824.082 477.158 825.236 485.563 825.359 492.328C825.365 492.597 825.317 492.865 825.218 493.116C825.12 493.366 824.973 493.595 824.785 493.79C824.598 493.984 824.374 494.139 824.126 494.247C823.878 494.355 823.611 494.414 823.341 494.419V494.419H823.299Z" fill="#035397"/>
<path d="M829.15 484.743C828.617 484.743 828.106 484.539 827.722 484.172C827.337 483.805 827.111 483.304 827.09 482.775C826.884 477.732 825.565 471.541 824.041 470.762C818.342 469.742 812.519 469.603 806.778 470.352C806.508 470.376 806.235 470.347 805.976 470.266C805.716 470.186 805.476 470.055 805.267 469.882C804.846 469.532 804.582 469.03 804.533 468.486C804.484 467.943 804.654 467.402 805.005 466.983C805.357 466.564 805.861 466.301 806.407 466.252C808.962 466.047 822.022 465.022 825.977 467.113C829.933 469.204 831.045 479.413 831.169 482.57C831.18 482.839 831.137 483.108 831.044 483.361C830.95 483.614 830.808 483.846 830.624 484.044C830.44 484.242 830.219 484.402 829.973 484.515C829.727 484.628 829.462 484.691 829.191 484.702L829.15 484.743Z" fill="#035397"/>
<path d="M824.783 491.221C825.112 493.568 826.013 495.799 827.405 497.721C828.798 499.643 830.642 501.198 832.776 502.25C825.386 507.535 820.105 515.244 817.861 524.021C813.741 539.15 817.367 541.979 817.367 541.979L837.637 535.05C839.782 534.321 841.756 533.167 843.441 531.66C845.126 530.152 846.487 528.32 847.443 526.276C852.84 514.632 863.676 491.098 864.253 487.654C865.035 483.062 859.35 480.233 852.923 482.283C846.495 484.333 825.277 488.925 824.783 491.221Z" fill="#ECBDBB"/>
<path d="M839.409 504.997C838.298 505.068 837.183 505.068 836.072 504.997C832.58 504.846 829.272 503.398 826.801 500.939C824.329 498.48 822.874 495.188 822.723 491.713C822.652 491.192 822.784 490.663 823.094 490.237C823.547 489.622 826.472 486.506 839.574 483.923C840.12 483.82 840.685 483.937 841.145 484.248C841.605 484.559 841.921 485.04 842.025 485.583C842.129 486.127 842.011 486.69 841.699 487.147C841.386 487.605 840.903 487.92 840.357 488.023C835.656 488.669 831.109 490.141 826.925 492.369C827.137 494.698 828.204 496.867 829.922 498.463C831.639 500.059 833.887 500.969 836.237 501.02C840.629 501.451 845.064 500.962 849.256 499.585C849.775 499.411 850.342 499.449 850.833 499.691C851.323 499.934 851.697 500.36 851.872 500.876C852.047 501.393 852.008 501.957 851.765 502.446C851.521 502.934 851.093 503.306 850.574 503.48C846.957 504.573 843.188 505.085 839.409 504.997V504.997Z" fill="#035397"/>
<path d="M1014.88 436.978C1014.88 436.978 1033.75 461.906 1043.72 469.081C1053.69 476.256 1086.32 483.8 1095.92 477.65C1105.52 471.5 1099.71 396.347 1099.71 396.347C1099.71 396.347 1074.29 359.775 1036.88 375.847C999.471 391.919 1014.88 436.978 1014.88 436.978Z" fill="#ECBDBB"/>
<path d="M1123.4 404.547C1086.98 414.1 1041.66 392.903 1041.66 392.903C1041.26 402.644 1039.17 412.243 1035.48 421.275L1042.85 437.675L1023.82 450.303C1023.82 450.303 959.631 432.222 959.26 424.022C958.889 415.822 971.62 359.078 978.171 356.7C988.471 354.607 998.907 353.236 1009.4 352.6C1014.89 336.311 1021.93 320.578 1030.41 305.614C1045.37 312.256 1038.12 332.633 1037.66 333.904L1088.46 276.258C1128.63 283.064 1120.72 319.964 1120.72 319.964C1131.21 311.946 1143.9 307.298 1157.1 306.639C1172.14 333.453 1159.78 394.953 1123.4 404.547Z" fill="#035397"/>
<path d="M1033.17 447.269C1031.22 442.146 1027.64 437.796 1022.98 434.881C1018.32 431.965 1012.83 430.643 1007.34 431.115C1003.74 431.465 1000.33 432.854 997.517 435.113C994.706 437.372 992.62 440.4 991.519 443.825C982.249 467.072 1025.84 477.978 1037.54 458.175L1033.17 447.269Z" fill="#ECBDBB"/>
<path d="M1031.03 457.396C1030.7 457.398 1030.37 457.321 1030.08 457.171C1029.79 457.021 1029.53 456.803 1029.34 456.535C1018.46 441.078 1000.95 448.704 1000.21 449.032C999.722 449.217 999.179 449.208 998.695 449.009C998.211 448.809 997.821 448.433 997.606 447.957C997.39 447.481 997.365 446.941 997.536 446.448C997.706 445.955 998.06 445.544 998.523 445.301C998.729 445.301 1019.95 435.953 1032.72 454.198C1032.93 454.505 1033.05 454.863 1033.07 455.233C1033.09 455.603 1033.01 455.972 1032.84 456.3C1032.66 456.628 1032.4 456.903 1032.09 457.096C1031.77 457.289 1031.4 457.393 1031.03 457.396Z" fill="#035397"/>
<path d="M1012.98 461.619C1012.49 461.614 1012.02 461.433 1011.65 461.11C1011.28 460.786 1011.03 460.342 1010.97 459.856C1010.28 454.715 1010.7 449.487 1012.2 444.522C1012.41 444.054 1012.79 443.683 1013.27 443.481C1013.74 443.279 1014.28 443.262 1014.76 443.432C1015.25 443.602 1015.65 443.947 1015.9 444.399C1016.14 444.851 1016.2 445.378 1016.07 445.875C1014.79 450.208 1014.42 454.76 1015 459.241C1015.04 459.507 1015.03 459.779 1014.97 460.041C1014.9 460.303 1014.79 460.55 1014.63 460.767C1014.46 460.984 1014.26 461.167 1014.03 461.306C1013.8 461.446 1013.54 461.538 1013.27 461.578H1012.98V461.619Z" fill="#035397"/>
<path d="M1048.58 420.988C1048.58 420.988 1050.76 408.688 1060.16 410.369C1060.16 410.369 1059.58 404.875 1061.68 404.219C1063.78 403.563 1066.09 413.116 1066.09 413.116C1059.78 414.548 1053.83 417.225 1048.58 420.988V420.988Z" fill="#035397"/>
<path d="M1094.07 411.435C1094.07 411.435 1090.93 400.652 1086.11 405.531C1086.11 405.531 1085.54 400.119 1084.3 400.283C1081.5 400.693 1083.35 410.164 1083.35 410.164C1086.96 409.297 1090.76 409.748 1094.07 411.435V411.435Z" fill="#035397"/>
<path d="M1089.58 455.879C1087.47 458.725 1085.01 461.288 1082.24 463.505C1077.67 467.031 1071.94 468.876 1068.32 461.168C1067.01 458.277 1066.13 455.21 1065.72 452.066C1065.72 452.066 1072.85 456.945 1089.58 455.879Z" fill="#035397"/>
<path d="M1082.28 463.3C1077.71 466.826 1071.98 468.671 1068.36 460.963C1070.7 460.277 1073.18 460.131 1075.59 460.536C1078 460.941 1080.29 461.886 1082.28 463.3Z" fill="white"/>
<path d="M1064.16 435.931C1066.74 435.5 1068.4 432.58 1067.87 429.409C1067.33 426.238 1064.81 424.017 1062.23 424.447C1059.65 424.878 1057.99 427.798 1058.52 430.969C1059.06 434.14 1061.58 436.362 1064.16 435.931Z" fill="#035397"/>
<path d="M1064.1 429.226C1064.77 429.113 1065.23 428.479 1065.12 427.809C1065 427.139 1064.36 426.687 1063.69 426.799C1063.02 426.912 1062.56 427.546 1062.68 428.216C1062.79 428.886 1063.43 429.338 1064.1 429.226Z" fill="white"/>
<path d="M1091.58 431.395C1094.16 430.965 1095.82 428.045 1095.29 424.874C1094.75 421.702 1092.23 419.481 1089.65 419.912C1087.06 420.342 1085.41 423.262 1085.94 426.433C1086.47 429.604 1089 431.826 1091.58 431.395Z" fill="#035397"/>
<path d="M1091.55 424.65C1092.23 424.538 1092.68 423.903 1092.57 423.233C1092.45 422.563 1091.82 422.111 1091.14 422.224C1090.47 422.336 1090.02 422.97 1090.13 423.64C1090.24 424.31 1090.88 424.762 1091.55 424.65Z" fill="white"/>
<path d="M1080.43 447.515H1079.44C1079.17 447.495 1078.91 447.421 1078.66 447.298C1078.42 447.175 1078.21 447.006 1078.03 446.801C1077.85 446.595 1077.72 446.356 1077.64 446.099C1077.55 445.842 1077.52 445.571 1077.55 445.301C1077.6 444.761 1077.86 444.262 1078.27 443.91C1078.69 443.558 1079.23 443.381 1079.77 443.415C1079.77 443.415 1084.51 443.702 1085.17 440.75C1085.25 440.539 1085.25 440.306 1085.17 440.094C1083.71 439.437 1082.08 439.265 1080.51 439.602C1079.98 439.685 1079.43 439.556 1078.99 439.241C1078.55 438.926 1078.25 438.452 1078.16 437.921L1076.19 426.728C1076.14 426.462 1076.14 426.188 1076.2 425.924C1076.26 425.66 1076.38 425.41 1076.53 425.189C1076.69 424.968 1076.89 424.78 1077.12 424.636C1077.35 424.492 1077.61 424.395 1077.87 424.35C1078.41 424.266 1078.97 424.395 1079.41 424.709C1079.86 425.023 1080.16 425.497 1080.26 426.031L1081.91 435.379C1083.03 435.266 1084.16 435.374 1085.23 435.698C1086.31 436.021 1087.31 436.554 1088.17 437.265C1088.71 437.839 1089.09 438.539 1089.28 439.3C1089.47 440.06 1089.45 440.856 1089.25 441.611C1088.67 443.447 1087.48 445.033 1085.88 446.106C1084.28 447.18 1082.35 447.677 1080.43 447.515Z" fill="#035397"/>
</svg>
