<svg width="185" height="176" viewBox="0 0 185 176" fill="none" xmlns="http://www.w3.org/2000/svg">
<path d="M140.667 108.875H38.3672C36.3127 108.875 34.3369 109.665 32.8493 111.083L13.5179 129.498C8.42491 134.349 0 130.739 0 123.705V8.375C0 6.15381 0.926262 4.0236 2.57502 2.45298C4.22378 0.882363 6.45997 0 8.79167 0H140.667C142.998 0 145.235 0.882363 146.883 2.45298C148.532 4.0236 149.458 6.15381 149.458 8.375V100.5C149.458 102.721 148.532 104.851 146.883 106.422C145.235 107.993 142.998 108.875 140.667 108.875ZM184.625 58.625V157.205C184.625 164.239 176.2 167.849 171.107 162.998L151.776 144.583C150.288 143.165 148.312 142.375 146.258 142.375H52.75C50.4183 142.375 48.1821 141.493 46.5334 139.922C44.8846 138.351 43.9583 136.221 43.9583 134V133.625C43.9583 129.207 47.5401 125.625 51.9583 125.625H159.042C163.46 125.625 167.042 122.043 167.042 117.625V58.25C167.042 53.8317 170.623 50.25 175.042 50.25H175.833C178.165 50.25 180.401 51.1324 182.05 52.703C183.699 54.2736 184.625 56.4038 184.625 58.625ZM54.4204 16.75C46.7717 16.75 40.6175 18.425 35.87 21.6913C31.3099 25.1163 29.0241 29.8746 29.0998 36.4649C29.1002 36.4978 29.106 36.5309 29.1168 36.562V36.562C29.1597 36.6843 29.2751 36.7663 29.4048 36.7663H39.6783C43.292 36.7663 45.8601 33.3228 48.6179 30.9875V30.9875C50.2459 29.7015 52.306 29.0176 54.4204 29.0612C57.1458 29.0612 59.4317 29.8987 61.0142 31.4062C62.5967 32.9975 63.3 35.175 63.3 37.6875C63.3 40.3675 62.6846 42.6288 61.2779 44.555C60.0471 46.4813 58.2008 48.1563 55.915 49.4963C51.4312 52.3438 48.3542 54.8562 46.6838 57.1175C46.2021 57.7139 45.7799 58.4109 45.4206 59.1946C43.5794 63.2109 47.5401 67 51.9583 67H55.1814C58.6941 67 61.0521 63.9128 62.6846 60.8025V60.8025C63.4758 59.295 64.9704 57.7875 67.1683 56.4475C71.1246 54.4375 74.3775 52.0087 76.9271 48.6587C79.4767 45.3087 80.7954 41.875 80.7954 37.6875C80.7954 31.3225 78.4217 26.2137 73.6742 22.445C69.0146 18.6762 62.5967 16.75 54.4204 16.75ZM51.9583 75.375C47.5401 75.375 43.9583 78.9567 43.9583 83.375V84.125C43.9583 88.5433 47.5401 92.125 51.9583 92.125H53.5417C57.9599 92.125 61.5417 88.5433 61.5417 84.125V83.375C61.5417 78.9567 57.9599 75.375 53.5417 75.375H51.9583ZM96.7083 84.125C96.7083 88.5433 100.29 92.125 104.708 92.125H106.292C110.71 92.125 114.292 88.5433 114.292 84.125V83.375C114.292 78.9567 110.71 75.375 106.292 75.375H104.708C100.29 75.375 96.7083 78.9567 96.7083 83.375V84.125ZM104.708 16.75C100.29 16.75 96.7083 20.3317 96.7083 24.75V59C96.7083 63.4183 100.29 67 104.708 67H106.292C110.71 67 114.292 63.4183 114.292 59V24.75C114.292 20.3317 110.71 16.75 106.292 16.75H104.708Z" fill="#4FBDBA"/>
<circle cx="105.5" cy="83.5" r="9.5" fill="#612897"/>
</svg>
