<svg width="250" height="250" viewBox="0 0 250 250" fill="none" xmlns="http://www.w3.org/2000/svg">
<path d="M125 239.583C188.282 239.583 239.583 188.283 239.583 125C239.583 61.7175 188.282 10.4167 125 10.4167C61.7172 10.4167 10.4165 61.7175 10.4165 125C10.4165 188.283 61.7172 239.583 125 239.583Z" fill="#035397"/>
<path d="M142.299 67.5H113.25C99.0499 67.5 87.5 77.6191 87.5 90.06C87.5 94.2125 89.729 101.458 94.474 101.458C99.2189 101.458 102.789 98.654 102.789 94.7107C102.789 90.5653 105.417 81.25 113.25 82.54H142.299C149.944 82.54 156.167 87.9897 156.167 94.7107C156.167 99.3449 153.224 103.516 147.986 105.833L102.789 116.26C94.2057 118.023 94.474 127 94.474 129.655L95.625 160.417C97.2344 163.004 99.2134 166.667 103.958 166.667C109.591 166.667 110.26 162.872 111.25 160.417V128.542L156.167 119.033C166.754 114.392 173.333 105.069 173.333 94.7107C173.333 79.7059 159.412 67.5 142.299 67.5ZM103.958 169.167C98.0332 169.167 95.625 172.309 95.625 177.5C95.625 182.691 98.0332 185.208 103.958 185.208C109.884 185.208 112.714 182.482 112.714 177.5C112.714 172.518 109.886 169.167 103.958 169.167Z" fill="#D82148"/>
</svg>
