<svg width="19" height="19" viewBox="0 0 19 19" fill="none" xmlns="http://www.w3.org/2000/svg">
<path d="M9.284 0.5C14.3753 0.5 18.5 4.5293 18.5 9.5C18.5 14.4707 14.3744 18.5 9.284 18.5C6.4121 18.5 3.7562 17.2067 2.021 15.0386C1.97236 14.978 1.93638 14.9083 1.91521 14.8336C1.89404 14.7589 1.88811 14.6806 1.89776 14.6036C1.90742 14.5265 1.93246 14.4522 1.97141 14.385C2.01036 14.3178 2.06242 14.2591 2.1245 14.2124C2.25108 14.1161 2.41019 14.0729 2.56811 14.0918C2.72602 14.1108 2.87035 14.1905 2.9705 14.3141C3.72959 15.2575 4.69138 16.0178 5.78451 16.5387C6.87764 17.0596 8.07403 17.3276 9.2849 17.3228C13.7084 17.3228 17.2949 13.82 17.2949 9.5C17.2949 5.18 13.7084 1.6772 9.2849 1.6772C8.09133 1.67261 6.91161 1.93301 5.83088 2.4396C4.75014 2.9462 3.79532 3.68637 3.0353 4.6067C2.93356 4.72914 2.78812 4.80712 2.62984 4.82409C2.47155 4.84106 2.31288 4.79569 2.1875 4.6976C2.12596 4.65011 2.07461 4.59072 2.03649 4.52297C1.99837 4.45522 1.97427 4.3805 1.96563 4.30325C1.95698 4.226 1.96396 4.1478 1.98615 4.0733C2.00834 3.9988 2.04529 3.92953 2.0948 3.8696C3.8327 1.7546 6.4535 0.5 9.2849 0.5H9.284ZM9.7745 6.6758L12.2108 9.1121C12.4466 9.3479 12.4511 9.7241 12.2207 9.9545L9.842 12.335C9.78601 12.3898 9.71977 12.433 9.64707 12.4622C9.57436 12.4913 9.49662 12.5058 9.4183 12.5049C9.33997 12.504 9.26259 12.4877 9.19059 12.4568C9.11859 12.4259 9.05338 12.3812 8.9987 12.3251C8.94267 12.2704 8.89799 12.2051 8.86721 12.1331C8.83643 12.061 8.82016 11.9836 8.81932 11.9053C8.81849 11.827 8.83311 11.7493 8.86234 11.6766C8.89158 11.6039 8.93485 11.5377 8.9897 11.4818L10.382 10.0886L1.103 10.0895C1.02468 10.0905 0.946945 10.076 0.874237 10.0468C0.801528 10.0177 0.735276 9.97453 0.679269 9.91978C0.623262 9.86503 0.578601 9.79977 0.54784 9.72774C0.517079 9.65571 0.500822 9.57832 0.5 9.5C0.5 9.1751 0.77 8.9114 1.103 8.9114H10.3442L8.942 7.5083C8.88597 7.45356 8.84129 7.3883 8.81051 7.31627C8.77973 7.24424 8.76346 7.16684 8.76262 7.08852C8.76179 7.01019 8.77641 6.93247 8.80564 6.85979C8.83488 6.78712 8.87815 6.72093 8.933 6.665C9.04599 6.5549 9.19804 6.49411 9.3558 6.49597C9.51355 6.49783 9.66413 6.56217 9.7745 6.6749V6.6758Z" fill="white"/>
</svg>
